<svg width="36" height="35" viewBox="0 0 36 35" fill="none" xmlns="http://www.w3.org/2000/svg">
<path fill-rule="evenodd" clip-rule="evenodd" d="M22.9834 5.76311C23.1712 5.57536 23.1712 5.27095 22.9834 5.0832C22.7957 4.89544 22.4913 4.89544 22.3035 5.0832L20.9437 6.44302C20.9168 6.46998 20.8937 6.49934 20.8745 6.53041C20.0117 6.1284 19.0495 5.90392 18.0349 5.90392C17.0203 5.90392 16.0582 6.12841 15.1954 6.53042C15.1762 6.49935 15.1531 6.46998 15.1262 6.44302L13.7664 5.0832C13.5786 4.89544 13.2742 4.89544 13.0865 5.0832C12.8987 5.27095 12.8987 5.57536 13.0865 5.76311L14.3347 7.01139C12.509 8.21517 11.3042 10.2842 11.3042 12.6347H24.7657C24.7657 10.2842 23.5609 8.21516 21.7351 7.01138L22.9834 5.76311ZM15.8715 10.2308C16.2697 10.2308 16.5926 9.90796 16.5926 9.50969C16.5926 9.11141 16.2697 8.78854 15.8715 8.78854C15.4732 8.78854 15.1503 9.11141 15.1503 9.50969C15.1503 9.90796 15.4732 10.2308 15.8715 10.2308ZM20.9195 9.50969C20.9195 9.90796 20.5967 10.2308 20.1984 10.2308C19.8001 10.2308 19.4772 9.90796 19.4772 9.50969C19.4772 9.11141 19.8001 8.78854 20.1984 8.78854C20.5967 8.78854 20.9195 9.11141 20.9195 9.50969ZM8.90032 13.5962C8.10375 13.5962 7.45801 14.242 7.45801 15.0385V22.7308C7.45801 23.5274 8.10375 24.1732 8.90032 24.1732C9.69688 24.1732 10.3426 23.5274 10.3426 22.7308V15.0385C10.3426 14.242 9.69688 13.5962 8.90032 13.5962ZM27.1695 13.5962C26.373 13.5962 25.7272 14.242 25.7272 15.0385V22.7308C25.7272 23.5274 26.373 24.1732 27.1695 24.1732C27.9661 24.1732 28.6119 23.5274 28.6119 22.7308V15.0385C28.6119 14.242 27.9661 13.5962 27.1695 13.5962ZM11.3042 22.2501V13.5962H24.7657V22.2501C24.7657 23.3122 23.9047 24.1732 22.8426 24.1732H21.8811V28.5001C21.8811 29.2966 21.2353 29.9424 20.4388 29.9424C19.6422 29.9424 18.9965 29.2966 18.9965 28.5001V24.1732H17.0734V28.5001C17.0734 29.2966 16.4276 29.9424 15.6311 29.9424C14.8345 29.9424 14.1888 29.2966 14.1888 28.5001V24.1732H13.2272C12.1651 24.1732 11.3042 23.3122 11.3042 22.2501Z" fill="white"/>
</svg>
