<svg width="199" height="199" viewBox="0 0 199 199" fill="none" xmlns="http://www.w3.org/2000/svg">
<g clip-path="url(#clip0_22_175)">
<path d="M99.2221 198.827C153.919 198.827 198.261 154.486 198.261 99.7885C198.261 45.091 153.919 0.75 99.2221 0.75C44.5246 0.75 0.183594 45.091 0.183594 99.7885C0.183594 154.486 44.5246 198.827 99.2221 198.827Z" fill="white" fill-opacity="0.1"/>
<g filter="url(#filter0_d_22_175)">
<path d="M62.6836 72.485C62.6836 69.5288 64.9164 67.0477 67.8352 66.58C71.0085 66.0715 75.3081 65.2636 79.7431 64.073C87.3372 62.0342 95.3281 58.4424 98.7413 58.4424C102.155 58.4424 110.145 62.0342 117.739 64.073C122.174 65.2636 126.474 66.0715 129.647 66.58C132.566 67.0477 134.799 69.5339 134.799 72.49C134.799 78.7553 134.799 89.8007 134.799 100.671C134.799 122.585 107.659 142.096 98.7413 142.096C89.8238 142.096 62.6836 122.585 62.6836 100.671C62.6836 90.4495 62.6836 78.9682 62.6836 72.485Z" fill="#F9C768"/>
</g>
<path d="M62.6836 72.485C62.6836 69.5288 64.9164 67.0477 67.8352 66.58C71.0085 66.0715 75.3081 65.2636 79.7431 64.073C87.3372 62.0342 95.3759 58.4424 98.7413 58.4424C98.7413 58.4424 98.7413 62.7441 98.7413 67.2904V80.902C98.7413 87.341 98.7413 97.4847 98.7413 107.481C98.7413 129.393 98.7413 142.096 98.7413 142.096C89.8238 142.096 62.6836 122.585 62.6836 100.671C62.6836 90.4495 62.6836 78.9682 62.6836 72.485Z" fill="#F7B749"/>
<path d="M99.2219 124.789C114.091 124.789 126.145 112.735 126.145 97.8655C126.145 82.9963 114.091 70.9424 99.2219 70.9424C84.3527 70.9424 72.2988 82.9963 72.2988 97.8655C72.2988 112.735 84.3527 124.789 99.2219 124.789Z" fill="#FFD88E"/>
<path d="M84.1991 83.2024C83.6532 82.5348 82.646 82.4843 82.0836 83.1382C80.9613 84.443 79.9853 85.8774 79.1814 87.4159C78.9068 87.9415 79.0245 88.5807 79.4464 88.9975C80.1579 89.7004 81.3615 89.4539 81.8337 88.5722C82.4875 87.3517 83.2659 86.2082 84.152 85.1584C84.6266 84.5962 84.6648 83.772 84.1991 83.2024Z" fill="#FFF0D4"/>
<path d="M108.728 115.139C109.349 114.795 110.131 114.919 110.58 115.468L110.61 115.505C111.156 116.173 111.006 117.169 110.254 117.59C110.141 117.654 110.028 117.715 109.914 117.777C109.392 118.058 108.751 117.947 108.329 117.531C107.618 116.829 107.853 115.62 108.728 115.139Z" fill="#FFF0D4"/>
<path d="M88.2342 81.4987C87.6241 81.9091 86.7938 81.8175 86.3283 81.2482L86.2741 81.1818C85.7607 80.5539 85.8622 79.6225 86.5329 79.1665C86.5953 79.1241 86.6579 79.082 86.7207 79.0402C87.36 78.6148 88.2129 78.8229 88.6293 79.4682L88.6754 79.5397C89.0971 80.1934 88.8797 81.0645 88.2342 81.4987Z" fill="#FFF0D4"/>
<path d="M99.2216 98.827C103.47 98.827 106.914 95.383 106.914 91.1347C106.914 86.8863 103.47 83.4424 99.2216 83.4424C94.9733 83.4424 91.5293 86.8863 91.5293 91.1347C91.5293 95.383 94.9733 98.827 99.2216 98.827Z" fill="#CF8831"/>
<path d="M116.529 118.491C116.529 118.491 109.318 124.789 98.741 124.789C88.1641 124.789 81.9141 118.491 81.9141 118.491C81.9141 112.384 88.9167 105.558 98.741 105.558C108.565 105.558 116.529 112.384 116.529 118.491Z" fill="#CF8831"/>
</g>
<defs>
<filter id="filter0_d_22_175" x="53.0682" y="48.827" width="91.346" height="102.885" filterUnits="userSpaceOnUse" color-interpolation-filters="sRGB">
<feFlood flood-opacity="0" result="BackgroundImageFix"/>
<feColorMatrix in="SourceAlpha" type="matrix" values="0 0 0 0 0 0 0 0 0 0 0 0 0 0 0 0 0 0 127 0" result="hardAlpha"/>
<feOffset/>
<feGaussianBlur stdDeviation="4.80769"/>
<feComposite in2="hardAlpha" operator="out"/>
<feColorMatrix type="matrix" values="0 0 0 0 0 0 0 0 0 0 0 0 0 0 0 0 0 0 0.2 0"/>
<feBlend mode="normal" in2="BackgroundImageFix" result="effect1_dropShadow_22_175"/>
<feBlend mode="normal" in="SourceGraphic" in2="effect1_dropShadow_22_175" result="shape"/>
</filter>
<clipPath id="clip0_22_175">
<rect width="198.077" height="198.077" fill="white" transform="translate(0.183594 0.75)"/>
</clipPath>
</defs>
</svg>
