<svg width="36" height="36" viewBox="0 0 36 36" fill="none" xmlns="http://www.w3.org/2000/svg">
<path d="M25.9245 16.5477C25.9378 15.5046 26.2147 14.4819 26.729 13.5748C27.2433 12.6676 27.9785 11.9054 28.8661 11.3591C28.3023 10.5528 27.5583 9.88933 26.6935 9.42128C25.8286 8.95322 24.8667 8.69348 23.884 8.6627C21.7878 8.44244 19.7556 9.91839 18.6875 9.91839C17.5986 9.91839 15.954 8.68457 14.183 8.72104C13.0375 8.7581 11.9211 9.09157 10.9426 9.68898C9.9641 10.2864 9.15686 11.1273 8.59955 12.1299C6.18535 16.3143 7.98612 22.464 10.2987 25.8463C11.4557 27.5025 12.808 29.3525 14.5774 29.2869C16.3088 29.215 16.9555 28.1817 19.0455 28.1817C21.1161 28.1817 21.7228 29.2869 23.5281 29.2452C25.386 29.215 26.5567 27.5817 27.6731 25.9097C28.5044 24.7296 29.1441 23.4253 29.5685 22.0451C28.4891 21.5881 27.5679 20.8231 26.92 19.8455C26.272 18.8679 25.9257 17.721 25.9245 16.5477Z" fill="white"/>
<path d="M22.5146 6.72755C23.5276 5.51012 24.0266 3.94533 23.9058 2.36548C22.3581 2.52821 20.9285 3.2687 19.9018 4.43942C19.3998 5.01134 19.0154 5.6767 18.7704 6.39747C18.5255 7.11823 18.4248 7.88026 18.4741 8.64C19.2482 8.64798 20.0141 8.48001 20.7139 8.14874C21.4138 7.81747 22.0295 7.33154 22.5146 6.72755Z" fill="white"/>
</svg>
