<svg width="30" height="30" viewBox="0 0 30 30" fill="none" xmlns="http://www.w3.org/2000/svg">
<g clip-path="url(#clip0_1_1340)">
<path d="M30 15C30 6.71573 23.2843 0 15 0C6.71573 0 0 6.71573 0 15C0 23.2843 6.71573 30 15 30C23.2843 30 30 23.2843 30 15Z" fill="#F3F3F3"/>
<path fill-rule="evenodd" clip-rule="evenodd" d="M12.3513 8.04539C12.3805 8.03222 12.4123 8.02544 12.4443 8.02544H17.5554C17.5875 8.02544 17.6192 8.03222 17.6485 8.04539L21.0911 9.59561C21.1313 9.61367 21.1654 9.64305 21.1892 9.68017L23.1515 12.7355C23.2052 12.8192 23.1988 12.9282 23.1355 13.0049L15.175 22.6507C15.084 22.7608 14.9157 22.7608 14.8248 22.6507L6.86431 13.0049C6.80103 12.9282 6.79453 12.8192 6.84831 12.7355L8.81053 9.68017C8.83442 9.64305 8.86848 9.61367 8.90859 9.59561L12.3513 8.04539Z" fill="url(#paint0_linear_1_1340)"/>
<path fill-rule="evenodd" clip-rule="evenodd" d="M12.3513 8.04539C12.3805 8.03222 12.4123 8.02544 12.4443 8.02544H17.5554C17.5875 8.02544 17.6192 8.03222 17.6485 8.04539L21.0911 9.59561C21.1313 9.61367 21.1654 9.64305 21.1892 9.68017L23.1515 12.7355C23.2052 12.8192 23.1988 12.9282 23.1355 13.0049H6.86431C6.80103 12.9282 6.79453 12.8192 6.84831 12.7355L8.81053 9.68017C8.83442 9.64305 8.86848 9.61367 8.90859 9.59561L12.3513 8.04539Z" fill="url(#paint1_linear_1_1340)"/>
<path d="M15.0002 11.0612L18.1059 15.1651H11.8945L15.0002 11.0612Z" fill="#95B0FF"/>
<path d="M14.8148 22.6263C14.9099 22.7413 15.0873 22.7389 15.1793 22.6215L16.0528 21.5078L18.1059 15.1652H11.8945L13.8888 21.5078L14.8148 22.6263Z" fill="url(#paint2_linear_1_1340)"/>
<path d="M15.0002 11.0612L9.49463 10.2461L11.8945 15.1651L15.0002 11.0612Z" fill="#D7D6FC"/>
<path d="M6.86426 13.0049L9.49415 10.2461L11.894 15.1651L6.86426 13.0049Z" fill="#BDB3F9"/>
<path d="M15 11.0612L20.5056 10.2461L18.1057 15.1651L15 11.0612Z" fill="#6E97FF"/>
<path d="M23.1357 13.0049L20.5058 10.2461L18.106 15.1651L23.1357 13.0049Z" fill="#A4CCFA"/>
<path d="M23.1357 13.0052L20.5059 10.2464L21.0988 9.59989C21.1099 9.60561 21.1424 9.61967 21.1752 9.66022C21.2175 9.71228 22.4494 11.5398 23.1517 12.7359C23.2161 12.8456 23.1834 12.9478 23.1357 13.0052Z" fill="#799FF0"/>
<path d="M6.86445 13.0052L9.49423 10.2464L8.90134 9.59989C8.89017 9.60561 8.85773 9.61967 8.82484 9.66022C8.78261 9.71228 7.55073 11.5398 6.84839 12.7359C6.784 12.8456 6.81678 12.9478 6.86445 13.0052Z" fill="#B28DFF"/>
<path d="M10.406 16.0075C10.384 16.0178 10.3628 15.9919 10.3774 15.9724L11.0825 15.0319C11.2895 14.7558 11.3273 14.3882 11.1805 14.076L10.6808 13.0124C10.6704 12.9904 10.6965 12.9693 10.716 12.9839L11.6584 13.6876C11.9352 13.8942 12.3034 13.9318 12.6163 13.7853L13.682 13.2867C13.7041 13.2763 13.7253 13.3023 13.7107 13.3218L13.0055 14.2623C12.7985 14.5384 12.7608 14.9059 12.9075 15.2182L13.4073 16.2817C13.4176 16.3037 13.3916 16.3249 13.372 16.3103L12.4296 15.6066C12.1529 15.4 11.7846 15.3624 11.4717 15.5088L10.406 16.0075Z" fill="white"/>
</g>
<defs>
<linearGradient id="paint0_linear_1_1340" x1="6.81198" y1="13.1032" x2="23.5971" y2="12.9273" gradientUnits="userSpaceOnUse">
<stop stop-color="#9889FE"/>
<stop offset="0.495027" stop-color="#68A3F1"/>
<stop offset="1" stop-color="#61A8EA"/>
</linearGradient>
<linearGradient id="paint1_linear_1_1340" x1="8.80048" y1="9.60128" x2="20.9068" y2="9.54267" gradientUnits="userSpaceOnUse">
<stop stop-color="#B69EFD"/>
<stop offset="1" stop-color="#9BB7FC"/>
</linearGradient>
<linearGradient id="paint2_linear_1_1340" x1="15.0002" y1="15.1652" x2="15.0002" y2="22.7111" gradientUnits="userSpaceOnUse">
<stop stop-color="#B3C9FA"/>
<stop offset="1" stop-color="#A3D2F6"/>
</linearGradient>
<clipPath id="clip0_1_1340">
<rect width="30" height="30" fill="white"/>
</clipPath>
</defs>
</svg>
