<svg width="30" height="30" viewBox="0 0 30 30" fill="none" xmlns="http://www.w3.org/2000/svg">
<path fill-rule="evenodd" clip-rule="evenodd" d="M3 8.5C3 7.67157 3.67157 7 4.5 7H25.5C26.3284 7 27 7.67157 27 8.5C27 9.32843 26.3284 10 25.5 10H4.5C3.67157 10 3 9.32843 3 8.5ZM3 15.5C3 14.6716 3.67157 14 4.5 14H25.5C26.3284 14 27 14.6716 27 15.5C27 16.3284 26.3284 17 25.5 17H4.5C3.67157 17 3 16.3284 3 15.5ZM4.5 21C3.67157 21 3 21.6716 3 22.5C3 23.3284 3.67157 24 4.5 24H25.5C26.3284 24 27 23.3284 27 22.5C27 21.6716 26.3284 21 25.5 21H4.5Z" fill="white"/>
</svg>
