<svg width="199" height="199" viewBox="0 0 199 199" fill="none" xmlns="http://www.w3.org/2000/svg">
<g clip-path="url(#clip0_22_157)">
<path d="M99.2221 198.827C153.919 198.827 198.261 154.486 198.261 99.7885C198.261 45.091 153.919 0.75 99.2221 0.75C44.5246 0.75 0.183594 45.091 0.183594 99.7885C0.183594 154.486 44.5246 198.827 99.2221 198.827Z" fill="white" fill-opacity="0.1"/>
<path d="M99.2216 65.1732C103.47 65.1732 106.914 61.7292 106.914 57.4809C106.914 53.2325 103.47 49.7886 99.2216 49.7886C94.9733 49.7886 91.5293 53.2325 91.5293 57.4809C91.5293 61.7292 94.9733 65.1732 99.2216 65.1732Z" fill="#CF8831"/>
<path d="M98.7413 149.788C104.848 149.788 109.799 144.838 109.799 138.731C109.799 132.624 104.848 127.673 98.7413 127.673C92.6343 127.673 87.6836 132.624 87.6836 138.731C87.6836 144.838 92.6343 149.788 98.7413 149.788Z" fill="#CF8831"/>
<g filter="url(#filter0_d_22_157)">
<path d="M77.1065 73.3468C82.8757 60.8467 97.2989 61.3277 99.222 61.3277C101.145 61.3277 115.568 60.8467 121.337 73.3468C126.511 84.5578 122.78 96.904 128.068 107C130.501 111.645 131.914 113.25 138.164 117.577C141.013 119.549 141.319 124.371 136.241 127.192C132.395 129.33 128.077 130.749 122.299 131.519L121.898 131.573C114.958 132.499 111.488 132.962 99.222 132.962C86.9558 132.962 83.4858 132.499 76.5458 131.573L76.145 131.519C70.3669 130.749 66.0489 129.33 62.2027 127.192C57.1246 124.371 57.4309 119.549 60.2796 117.577C66.5296 113.25 67.9428 111.645 70.3757 107C75.6642 96.904 71.9321 84.5578 77.1065 73.3468Z" fill="#F9C768"/>
</g>
<path d="M88.5661 122.18C88.6393 121.107 87.8181 120.184 86.7446 120.117C86.5317 120.104 86.3207 120.09 86.1117 120.076C85.042 120.005 84.1093 120.808 84.0376 121.878C83.9673 122.927 84.7533 123.84 85.803 123.91C86.05 123.927 86.2995 123.943 86.5516 123.959C87.5982 124.023 88.4948 123.226 88.5661 122.18Z" fill="#FFF0D4"/>
<path d="M71.2358 120.215C71.3736 119.078 72.4698 118.317 73.5921 118.54C75.0308 118.825 76.6855 119.101 78.5836 119.35C79.604 119.484 80.356 120.381 80.2871 121.408C80.2139 122.501 79.2432 123.315 78.1565 123.173C76.0931 122.904 74.2881 122.602 72.7116 122.286C71.7515 122.093 71.1177 121.187 71.2358 120.215Z" fill="#FFF0D4"/>
</g>
<defs>
<filter id="filter0_d_22_157" x="48.6219" y="51.7098" width="101.2" height="90.8672" filterUnits="userSpaceOnUse" color-interpolation-filters="sRGB">
<feFlood flood-opacity="0" result="BackgroundImageFix"/>
<feColorMatrix in="SourceAlpha" type="matrix" values="0 0 0 0 0 0 0 0 0 0 0 0 0 0 0 0 0 0 127 0" result="hardAlpha"/>
<feOffset/>
<feGaussianBlur stdDeviation="4.80769"/>
<feComposite in2="hardAlpha" operator="out"/>
<feColorMatrix type="matrix" values="0 0 0 0 0 0 0 0 0 0 0 0 0 0 0 0 0 0 0.3 0"/>
<feBlend mode="normal" in2="BackgroundImageFix" result="effect1_dropShadow_22_157"/>
<feBlend mode="normal" in="SourceGraphic" in2="effect1_dropShadow_22_157" result="shape"/>
</filter>
<clipPath id="clip0_22_157">
<rect width="198.077" height="198.077" fill="white" transform="translate(0.183594 0.75)"/>
</clipPath>
</defs>
</svg>
