<svg width="199" height="199" viewBox="0 0 199 199" fill="none" xmlns="http://www.w3.org/2000/svg">
<g clip-path="url(#clip0_22_126)">
<path d="M99.2221 198.827C153.919 198.827 198.261 154.486 198.261 99.7885C198.261 45.091 153.919 0.75 99.2221 0.75C44.5246 0.75 0.183594 45.091 0.183594 99.7885C0.183594 154.486 44.5246 198.827 99.2221 198.827Z" fill="white" fill-opacity="0.1"/>
<path d="M94.6542 115.346L88.9512 109.643L109.04 89.5547L115.412 95.9273C115.782 96.2971 115.782 96.8967 115.412 97.2665L113.05 99.6281C112.681 99.9973 112.681 100.597 113.05 100.967L114.871 102.787C115.013 102.929 115.106 103.113 115.137 103.312L115.623 106.453C115.654 106.651 115.748 106.836 115.89 106.977L117.507 108.595C117.716 108.804 117.815 109.096 117.777 109.388L117.508 111.443C117.427 112.06 117.953 112.586 118.57 112.505L120.625 112.237C120.917 112.198 121.21 112.297 121.418 112.506L122.805 113.893C123.077 114.165 123.158 114.574 123.009 114.929L121.94 117.483C121.792 117.838 121.873 118.246 122.144 118.518L124.571 120.945C124.803 121.178 125.14 121.273 125.46 121.196L128.698 120.424C129.019 120.348 129.355 120.443 129.588 120.675L132.134 123.221C132.342 123.43 132.441 123.722 132.403 124.015L132.035 126.829C131.997 127.12 132.096 127.413 132.304 127.621L134.815 130.132C135.067 130.384 135.437 130.473 135.775 130.364L137.872 129.688C138.21 129.579 138.58 129.668 138.831 129.919L140.259 131.347C140.467 131.555 140.567 131.848 140.528 132.14L140.26 134.195C140.179 134.812 140.704 135.338 141.322 135.257L143.376 134.988C143.669 134.95 143.961 135.049 144.17 135.257L146.275 137.364C146.45 137.538 146.549 137.774 146.552 138.021L146.657 146.618C146.67 147.594 145.938 148.419 144.967 148.524L134.221 149.684C133.65 149.745 133.083 149.545 132.677 149.141L98.7773 115.241C98.4081 114.87 97.8081 114.87 97.4379 115.241L97.3331 115.346C96.5927 116.086 95.3938 116.086 94.6542 115.346Z" fill="#F1B749"/>
<mask id="mask0_22_126" style="mask-type:alpha" maskUnits="userSpaceOnUse" x="88" y="89" width="59" height="61">
<path d="M94.6542 115.346L88.9512 109.643L109.04 89.5547L115.412 95.9273C115.782 96.2971 115.782 96.8967 115.412 97.2665L113.051 99.6281C112.681 99.9973 112.681 100.597 113.051 100.967L114.871 102.787C115.013 102.929 115.106 103.113 115.137 103.312L115.623 106.453C115.654 106.651 115.747 106.836 115.89 106.977L117.508 108.595C117.715 108.804 117.815 109.096 117.777 109.388L117.508 111.443C117.427 112.06 117.953 112.586 118.569 112.505L120.625 112.237C120.916 112.198 121.21 112.297 121.417 112.506L122.805 113.893C123.077 114.165 123.158 114.574 123.009 114.929L121.94 117.483C121.791 117.838 121.872 118.246 122.144 118.518L124.57 120.945C124.803 121.178 125.14 121.273 125.46 121.196L128.698 120.424C129.018 120.348 129.355 120.443 129.588 120.675L132.134 123.221C132.341 123.43 132.441 123.722 132.403 124.015L132.035 126.829C131.996 127.12 132.096 127.413 132.304 127.621L134.815 130.132C135.066 130.384 135.437 130.473 135.775 130.364L137.871 129.688C138.21 129.579 138.58 129.668 138.832 129.919L140.259 131.347C140.467 131.555 140.566 131.848 140.529 132.14L140.26 134.195C140.179 134.812 140.705 135.338 141.321 135.257L143.377 134.988C143.668 134.95 143.962 135.049 144.169 135.257L146.275 137.364C146.45 137.538 146.549 137.774 146.553 138.021L146.658 146.618C146.669 147.594 145.938 148.419 144.967 148.524L134.22 149.684C133.65 149.745 133.083 149.545 132.678 149.141L98.778 115.241C98.4078 114.87 97.8078 114.87 97.4386 115.241L97.3328 115.346C96.5934 116.086 95.3938 116.086 94.6542 115.346Z" fill="#F1B749"/>
</mask>
<g mask="url(#mask0_22_126)">
<path d="M96.9867 106.965L95.6475 108.304L150.555 163.212L151.895 161.873L96.9867 106.965Z" fill="#A17127" fill-opacity="0.4"/>
</g>
<mask id="mask1_22_126" style="mask-type:alpha" maskUnits="userSpaceOnUse" x="88" y="89" width="59" height="61">
<path d="M94.6542 115.346L88.9512 109.643L109.04 89.5547L115.412 95.9273C115.782 96.2971 115.782 96.8967 115.412 97.2665L113.051 99.6281C112.681 99.9973 112.681 100.597 113.051 100.967L114.871 102.787C115.013 102.929 115.106 103.113 115.137 103.312L115.623 106.453C115.654 106.651 115.747 106.836 115.89 106.977L117.508 108.595C117.715 108.804 117.815 109.096 117.777 109.388L117.508 111.443C117.427 112.06 117.953 112.586 118.569 112.505L120.625 112.237C120.916 112.198 121.21 112.297 121.417 112.506L122.805 113.893C123.077 114.165 123.158 114.574 123.009 114.929L121.94 117.483C121.791 117.838 121.872 118.246 122.144 118.518L124.57 120.945C124.803 121.178 125.14 121.273 125.46 121.196L128.698 120.424C129.018 120.348 129.355 120.443 129.588 120.675L132.134 123.221C132.341 123.43 132.441 123.722 132.403 124.015L132.035 126.829C131.996 127.12 132.096 127.413 132.304 127.621L134.815 130.132C135.066 130.384 135.437 130.473 135.775 130.364L137.871 129.688C138.21 129.579 138.58 129.668 138.832 129.919L140.259 131.347C140.467 131.555 140.566 131.848 140.529 132.14L140.26 134.195C140.179 134.812 140.705 135.338 141.321 135.257L143.377 134.988C143.668 134.95 143.962 135.049 144.169 135.257L146.275 137.364C146.45 137.538 146.549 137.774 146.553 138.021L146.658 146.618C146.669 147.594 145.938 148.419 144.967 148.524L134.22 149.684C133.65 149.745 133.083 149.545 132.678 149.141L98.778 115.241C98.4078 114.87 97.8078 114.87 97.4386 115.241L97.3328 115.346C96.5934 116.086 95.3938 116.086 94.6542 115.346Z" fill="#F1B749"/>
</mask>
<g mask="url(#mask1_22_126)">
<path d="M99.665 104.286L101.004 102.946L158.591 160.533L157.252 161.872L99.665 104.286Z" fill="#A17127" fill-opacity="0.4"/>
</g>
<path d="M79.5774 80.1801C82.536 77.2216 82.536 72.4249 79.5775 69.4664C76.6189 66.5079 71.8222 66.5079 68.8637 69.4664C65.9052 72.4249 65.9052 77.2216 68.8637 80.1801C71.8222 83.1386 76.6189 83.1386 79.5774 80.1801Z" stroke="#D9AE62" stroke-width="1.89394"/>
<g filter="url(#filter0_d_22_126)">
<path fill-rule="evenodd" clip-rule="evenodd" d="M103.013 103.616C115.217 91.4121 115.217 71.6256 103.013 59.4217C90.8092 47.2178 71.0227 47.2178 58.8189 59.4217C46.6151 71.6256 46.6151 91.4121 58.8189 103.616C71.0227 115.82 90.8092 115.82 103.013 103.616ZM80.2463 80.8492C83.5747 77.5208 83.5747 72.1245 80.2463 68.7962C76.918 65.4678 71.5217 65.4678 68.1934 68.7962C64.8651 72.1245 64.8651 77.5208 68.1934 80.8492C71.5217 84.1775 76.918 84.1775 80.2463 80.8492Z" fill="#F7B749"/>
</g>
<g filter="url(#filter1_d_22_126)">
<path fill-rule="evenodd" clip-rule="evenodd" d="M97.6555 98.2588C106.901 89.0139 106.901 74.0241 97.6555 64.7788C88.4103 55.5334 73.4206 55.5334 64.1752 64.7788C54.9299 74.0241 54.9299 89.0139 64.1752 98.2588C73.4206 107.505 88.4103 107.505 97.6555 98.2588ZM80.2456 80.8493C83.574 77.521 83.574 72.1247 80.2456 68.7964C76.9173 65.468 71.521 65.468 68.1927 68.7964C64.8644 72.1247 64.8644 77.521 68.1927 80.8493C71.521 84.1776 76.9173 84.1776 80.2456 80.8493Z" fill="#FFD88E"/>
</g>
<path d="M54.6323 73.0626C54.1711 72.9883 53.7233 73.2628 53.5953 73.7122C53.3773 74.4777 53.1921 75.2506 53.0396 76.0287C52.939 76.5422 53.2918 77.0289 53.8084 77.1121C54.3245 77.1953 54.8088 76.8441 54.9106 76.3312C55.0465 75.6469 55.2095 74.967 55.3996 74.293C55.5569 73.7357 55.204 73.1547 54.6323 73.0626Z" fill="#FFECC7"/>
<path d="M108.52 81.7461C107.949 81.6539 107.43 82.0951 107.405 82.6738C107.378 83.2901 107.33 83.9057 107.261 84.5194C107.19 85.1533 107.733 85.6993 108.364 85.5989C108.77 85.5342 109.088 85.2121 109.135 84.8034C109.217 84.1001 109.272 83.3942 109.301 82.6875C109.32 82.2211 108.981 81.8203 108.52 81.7461Z" fill="#FFECC7"/>
<path d="M56.0869 93.9252C55.681 93.9899 55.2788 93.7827 55.1068 93.4094C53.4176 89.7418 52.5516 85.7882 52.5088 81.8274C52.5026 81.2521 53.0226 80.8221 53.5907 80.9137C54.0581 80.989 54.3972 81.3967 54.4035 81.87C54.4515 85.5236 55.2502 89.1692 56.7994 92.5555C57.065 93.1361 56.7175 93.8248 56.0869 93.9252Z" fill="#FFECC7"/>
</g>
<defs>
<filter id="filter0_d_22_126" x="40.0506" y="40.6534" width="81.7308" height="81.7313" filterUnits="userSpaceOnUse" color-interpolation-filters="sRGB">
<feFlood flood-opacity="0" result="BackgroundImageFix"/>
<feColorMatrix in="SourceAlpha" type="matrix" values="0 0 0 0 0 0 0 0 0 0 0 0 0 0 0 0 0 0 127 0" result="hardAlpha"/>
<feOffset/>
<feGaussianBlur stdDeviation="4.80769"/>
<feComposite in2="hardAlpha" operator="out"/>
<feColorMatrix type="matrix" values="0 0 0 0 0 0 0 0 0 0 0 0 0 0 0 0 0 0 0.2 0"/>
<feBlend mode="normal" in2="BackgroundImageFix" result="effect1_dropShadow_22_126"/>
<feBlend mode="normal" in="SourceGraphic" in2="effect1_dropShadow_22_126" result="shape"/>
</filter>
<filter id="filter1_d_22_126" x="47.6258" y="48.2293" width="66.5794" height="66.5794" filterUnits="userSpaceOnUse" color-interpolation-filters="sRGB">
<feFlood flood-opacity="0" result="BackgroundImageFix"/>
<feColorMatrix in="SourceAlpha" type="matrix" values="0 0 0 0 0 0 0 0 0 0 0 0 0 0 0 0 0 0 127 0" result="hardAlpha"/>
<feOffset/>
<feGaussianBlur stdDeviation="4.80769"/>
<feComposite in2="hardAlpha" operator="out"/>
<feColorMatrix type="matrix" values="0 0 0 0 0 0 0 0 0 0 0 0 0 0 0 0 0 0 0.2 0"/>
<feBlend mode="normal" in2="BackgroundImageFix" result="effect1_dropShadow_22_126"/>
<feBlend mode="normal" in="SourceGraphic" in2="effect1_dropShadow_22_126" result="shape"/>
</filter>
<clipPath id="clip0_22_126">
<rect width="198.077" height="198.077" fill="white" transform="translate(0.183594 0.75)"/>
</clipPath>
</defs>
</svg>
