<svg width="199" height="199" viewBox="0 0 199 199" fill="none" xmlns="http://www.w3.org/2000/svg">
<g clip-path="url(#clip0_22_104)">
<path d="M99.2221 198.827C153.919 198.827 198.261 154.486 198.261 99.7885C198.261 45.091 153.919 0.75 99.2221 0.75C44.5246 0.75 0.183594 45.091 0.183594 99.7885C0.183594 154.486 44.5246 198.827 99.2221 198.827Z" fill="white" fill-opacity="0.1"/>
<path fill-rule="evenodd" clip-rule="evenodd" d="M98.2347 49.7886C80.1937 49.7886 65.5684 64.414 65.5684 82.4552V89.7886H130.902V82.4552C130.902 64.414 116.276 49.7886 98.2347 49.7886ZM98.2357 60.4552C86.0849 60.4552 76.2352 70.3049 76.2352 82.4552V89.7885H120.236V82.4552C120.236 70.3049 110.386 60.4552 98.2357 60.4552Z" fill="#BDBCBD"/>
<path fill-rule="evenodd" clip-rule="evenodd" d="M94.235 53.7886C78.4029 53.7886 65.5684 66.6231 65.5684 82.4552V89.7886H122.902V82.4552C122.902 66.623 110.067 53.7886 94.235 53.7886ZM98.2357 60.455C86.0849 60.455 76.2352 70.3047 76.2352 82.455V89.7883H120.236V82.455C120.236 70.3047 110.386 60.455 98.2357 60.455Z" fill="#D9D9D9"/>
<path d="M84.1794 59.5556C83.6663 58.92 82.7522 58.7723 82.0915 59.2526C81.0662 59.9979 80.0922 60.8095 79.1759 61.681C78.5818 62.246 78.5603 63.1747 79.0927 63.7981C79.7136 64.5249 80.8268 64.5458 81.5225 63.8904C82.2597 63.1959 83.0355 62.542 83.8464 61.9321C84.5981 61.3666 84.7704 60.2874 84.1794 59.5556Z" fill="#FEFEFE"/>
<path d="M72.4038 75.7924C71.6943 75.5184 71.2979 74.7554 71.5213 74.0284C72.3718 71.2591 73.6304 68.6687 75.2271 66.3269C75.8008 65.4855 77.0076 65.4621 77.6691 66.2366C78.1629 66.8148 78.182 67.6565 77.75 68.2823C76.3697 70.2824 75.2489 72.4755 74.4365 74.8129C74.1461 75.6486 73.229 76.1111 72.4038 75.7924Z" fill="#FEFEFE"/>
<g filter="url(#filter0_d_22_104)">
<path d="M58.2607 97.7885C58.2607 93.3703 61.8425 89.7886 66.2607 89.7886H130.261C134.679 89.7886 138.261 93.3703 138.261 97.7885V141.788C138.261 146.207 134.679 149.788 130.261 149.788H66.2608C61.8425 149.788 58.2607 146.207 58.2607 141.788V97.7885Z" fill="#F9C768"/>
<path d="M98.2607 89.7886H130.261C134.679 89.7886 138.261 93.3703 138.261 97.7885V141.788C138.261 146.207 134.679 149.788 130.261 149.788H98.2607V89.7886Z" fill="#F7B749"/>
</g>
<path d="M69.4141 140.173H66.5295C65.4674 140.173 64.6064 141.034 64.6064 142.096C64.6064 143.158 65.4674 144.019 66.5295 144.019H69.4141C70.4762 144.019 71.3372 143.158 71.3372 142.096C71.3372 141.034 70.4762 140.173 69.4141 140.173Z" fill="#FFF0D5"/>
<path d="M78.1069 142.096C78.1069 141.034 77.2459 140.173 76.1838 140.173C75.1217 140.173 74.2607 141.034 74.2607 142.096C74.2607 143.158 75.1217 144.019 76.1838 144.019C77.2459 144.019 78.1069 143.158 78.1069 142.096Z" fill="#FFF0D5"/>
<path d="M101.145 120.383C103.965 119.242 105.953 116.478 105.953 113.25C105.953 109.002 102.509 105.558 98.2607 105.558C94.0123 105.558 90.5684 109.002 90.5684 113.25C90.5684 116.478 92.557 119.242 95.3761 120.383V128.635C95.3761 130.228 96.6674 131.519 98.2607 131.519C99.8539 131.519 101.145 130.228 101.145 128.635V120.383Z" fill="#60627D"/>
</g>
<defs>
<filter id="filter0_d_22_104" x="48.6454" y="80.1732" width="99.2308" height="79.2308" filterUnits="userSpaceOnUse" color-interpolation-filters="sRGB">
<feFlood flood-opacity="0" result="BackgroundImageFix"/>
<feColorMatrix in="SourceAlpha" type="matrix" values="0 0 0 0 0 0 0 0 0 0 0 0 0 0 0 0 0 0 127 0" result="hardAlpha"/>
<feOffset/>
<feGaussianBlur stdDeviation="4.80769"/>
<feComposite in2="hardAlpha" operator="out"/>
<feColorMatrix type="matrix" values="0 0 0 0 0 0 0 0 0 0 0 0 0 0 0 0 0 0 0.3 0"/>
<feBlend mode="normal" in2="BackgroundImageFix" result="effect1_dropShadow_22_104"/>
<feBlend mode="normal" in="SourceGraphic" in2="effect1_dropShadow_22_104" result="shape"/>
</filter>
<clipPath id="clip0_22_104">
<rect width="198.077" height="198.077" fill="white" transform="translate(0.183594 0.75)"/>
</clipPath>
</defs>
</svg>
